M48
; DRILL file {KiCad 9.0.4} date 2025-08-20T10:27:12-0600
; FORMAT={-:-/ absolute / metric / decimal}
; #@! TF.CreationDate,2025-08-20T10:27:12-06:00
; #@! TF.GenerationSoftware,Kicad,Pcbnew,9.0.4
; #@! TF.FileFunction,Plated,1,6,PTH
FMAT,2
METRIC
; #@! TA.AperFunction,Plated,PTH,ViaDrill
T1C0.200
; #@! TA.AperFunction,Plated,PTH,ViaDrill
T2C0.300
; #@! TA.AperFunction,Plated,PTH,ViaDrill
T3C0.400
; #@! TA.AperFunction,Plated,PTH,ComponentDrill
T4C0.500
; #@! TA.AperFunction,Plated,PTH,ComponentDrill
T5C0.600
; #@! TA.AperFunction,Plated,PTH,ComponentDrill
T6C0.650
; #@! TA.AperFunction,Plated,PTH,ComponentDrill
T7C1.000
; #@! TA.AperFunction,Plated,PTH,ComponentDrill
T8C3.200
%
G90
G05
T1
X76.95Y-37.55
X76.95Y-39.55
X76.95Y-41.55
X76.95Y-43.55
X76.95Y-45.55
X76.95Y-47.55
X76.95Y-49.55
X76.95Y-51.55
X76.95Y-53.55
X76.95Y-55.55
X76.95Y-57.55
X76.95Y-59.55
X76.95Y-61.55
X76.95Y-63.55
X76.95Y-65.55
X76.95Y-67.55
X76.95Y-79.55
X76.95Y-81.55
X76.95Y-83.55
X76.95Y-85.55
X76.95Y-87.55
X76.95Y-89.55
X76.95Y-91.55
X76.95Y-93.55
X76.95Y-95.55
X76.95Y-97.55
X76.95Y-99.55
X76.95Y-101.55
X76.95Y-103.55
X76.95Y-115.55
X76.95Y-117.55
X76.95Y-119.55
X76.95Y-121.55
X76.95Y-123.55
X76.95Y-125.55
X76.95Y-127.55
X76.95Y-129.55
X76.95Y-131.55
X76.95Y-133.55
X76.95Y-135.55
X76.95Y-137.55
X76.95Y-139.55
X76.95Y-141.55
X76.95Y-143.55
X76.95Y-145.55
X77.95Y-68.55
X77.95Y-78.55
X77.95Y-104.55
X77.95Y-114.55
X78.95Y-37.55
X78.95Y-73.55
X78.95Y-109.55
X78.95Y-145.55
X79.0Y-48.5
X79.0Y-53.5
X79.0Y-80.0
X79.0Y-136.5
X79.631Y-97.651
X80.451Y-39.901
X81.0Y-58.5
X81.0Y-63.5
X81.0Y-68.5
X81.0Y-78.5
X81.0Y-83.5
X81.0Y-88.5
X81.0Y-93.5
X81.0Y-99.0
X81.0Y-103.5
X81.0Y-118.5
X81.0Y-123.5
X81.95Y-37.55
X81.95Y-145.55
X82.0Y-136.5
X82.0Y-143.0
X82.471Y-71.551
X82.5Y-48.556
X82.5Y-53.5
X82.779Y-97.651
X83.95Y-37.55
X83.95Y-39.55
X83.95Y-41.55
X83.95Y-43.55
X83.95Y-45.55
X83.95Y-137.55
X83.95Y-139.55
X83.95Y-141.55
X83.95Y-143.55
X83.95Y-145.55
X84.95Y-136.55
X85.151Y-90.601
X85.151Y-93.201
X85.651Y-89.551
X85.651Y-94.251
X85.95Y-46.55
X86.0Y-83.5
X86.0Y-98.5
X86.0Y-103.5
X86.0Y-108.5
X86.0Y-113.5
X86.0Y-118.5
X86.0Y-128.5
X86.95Y-136.55
X87.95Y-46.55
X88.451Y-126.511
X88.651Y-54.651
X88.95Y-136.55
X89.151Y-126.511
X89.151Y-128.251
X89.551Y-131.168
X89.751Y-126.511
X89.901Y-54.651
X89.95Y-46.55
X90.401Y-126.511
X90.401Y-128.251
X90.551Y-51.734
X90.551Y-56.391
X90.95Y-136.55
X91.0Y-60.5
X91.0Y-63.5
X91.0Y-71.0
X91.0Y-73.5
X91.0Y-76.0
X91.0Y-93.5
X91.0Y-98.5
X91.0Y-108.5
X91.0Y-133.5
X91.051Y-131.168
X91.151Y-54.651
X91.151Y-56.391
X91.651Y-128.251
X91.851Y-56.391
X91.95Y-46.55
X92.051Y-51.734
X92.401Y-54.651
X92.401Y-56.391
X92.651Y-99.651
X92.677Y-100.177
X92.901Y-128.251
X92.95Y-136.55
X93.68Y-70.805
X93.68Y-72.305
X93.68Y-73.805
X93.68Y-75.305
X93.68Y-106.631
X93.68Y-108.131
X93.68Y-109.631
X93.68Y-111.131
X93.851Y-63.351
X93.851Y-121.151
X93.851Y-122.651
X93.851Y-123.651
X93.851Y-124.751
X93.95Y-46.55
X94.351Y-63.351
X94.901Y-121.177
X94.901Y-121.677
X94.901Y-122.177
X94.901Y-122.677
X94.901Y-123.677
X94.901Y-124.677
X94.95Y-136.55
X95.0Y-91.0
X95.001Y-58.259
X95.001Y-58.759
X95.001Y-59.259
X95.001Y-60.259
X95.001Y-61.259
X95.336Y-63.5
X95.851Y-121.651
X95.876Y-125.152
X95.95Y-46.55
X95.976Y-57.784
X95.976Y-63.5
X96.0Y-58.8
X96.0Y-59.25
X96.0Y-59.7
X96.0Y-103.5
X96.0Y-128.5
X96.0Y-133.5
X96.025Y-60.7
X96.141Y-86.151
X96.461Y-83.901
X96.461Y-84.901
X96.5Y-58.8
X96.63Y-69.405
X96.63Y-70.655
X96.63Y-71.905
X96.63Y-73.155
X96.63Y-74.405
X96.63Y-75.655
X96.63Y-76.905
X96.63Y-78.155
X96.63Y-105.231
X96.63Y-106.481
X96.63Y-107.731
X96.63Y-108.981
X96.63Y-110.231
X96.63Y-111.481
X96.63Y-112.731
X96.63Y-113.981
X96.851Y-124.151
X96.95Y-136.55
X96.951Y-63.551
X97.101Y-83.901
X97.101Y-84.9
X97.351Y-122.151
X97.351Y-123.151
X97.351Y-123.651
X97.351Y-124.151
X97.376Y-119.551
X97.376Y-125.152
X97.451Y-63.551
X97.476Y-57.784
X97.5Y-61.275
X97.95Y-46.55
X98.016Y-119.551
X98.351Y-99.651
X98.351Y-100.151
X98.351Y-121.677
X98.351Y-122.677
X98.351Y-123.677
X98.351Y-124.177
X98.351Y-124.677
X98.37Y-68.751
X98.37Y-69.405
X98.37Y-70.051
X98.37Y-70.655
X98.37Y-71.251
X98.37Y-71.905
X98.37Y-72.551
X98.37Y-73.155
X98.37Y-104.551
X98.37Y-105.231
X98.37Y-105.851
X98.37Y-106.481
X98.37Y-107.151
X98.37Y-107.731
X98.37Y-108.351
X98.37Y-108.981
X98.451Y-58.259
X98.451Y-59.259
X98.451Y-60.259
X98.451Y-60.759
X98.451Y-61.259
X98.451Y-61.759
X98.95Y-136.55
X99.0Y-84.0
X99.0Y-86.0
X99.0Y-91.0
X99.101Y-87.651
X99.101Y-88.251
X99.101Y-88.901
X99.251Y-58.251
X99.251Y-59.251
X99.251Y-60.251
X99.251Y-61.751
X99.5Y-66.5
X99.651Y-115.351
X99.751Y-87.651
X99.751Y-88.251
X99.751Y-88.901
X99.95Y-46.55
X100.151Y-117.451
X100.251Y-115.351
X100.251Y-126.511
X100.255Y-73.005
X100.255Y-74.505
X100.255Y-108.831
X100.255Y-110.331
X100.451Y-54.651
X100.651Y-119.751
X100.73Y-72.03
X100.73Y-75.48
X100.73Y-107.856
X100.73Y-111.306
X100.751Y-71.151
X100.751Y-106.751
X100.751Y-117.451
X100.95Y-136.55
X100.951Y-126.511
X100.951Y-128.251
X101.0Y-63.5
X101.0Y-80.0
X101.0Y-84.0
X101.0Y-86.0
X101.0Y-93.5
X101.0Y-98.0
X101.0Y-103.5
X101.0Y-133.5
X101.151Y-74.051
X101.151Y-74.551
X101.23Y-75.48
X101.23Y-111.306
X101.251Y-109.851
X101.251Y-110.351
X101.251Y-119.751
X101.301Y-131.168
X101.551Y-126.511
X101.651Y-74.551
X101.701Y-54.651
X101.73Y-72.03
X101.73Y-75.48
X101.73Y-107.856
X101.73Y-111.306
X101.751Y-71.151
X101.751Y-106.751
X101.751Y-110.351
X101.95Y-46.55
X102.051Y-122.151
X102.201Y-126.511
X102.201Y-128.251
X102.251Y-74.551
X102.251Y-110.351
X102.3Y-115.7
X102.3Y-121.6
X102.301Y-51.734
X102.551Y-116.251
X102.73Y-72.03
X102.73Y-75.48
X102.73Y-107.856
X102.73Y-111.306
X102.751Y-71.151
X102.751Y-77.851
X102.751Y-106.751
X102.801Y-131.168
X102.95Y-136.55
X102.951Y-54.651
X102.951Y-56.391
X103.151Y-121.651
X103.2Y-120.9
X103.23Y-72.03
X103.23Y-107.856
X103.251Y-74.551
X103.251Y-78.951
X103.251Y-110.351
X103.3Y-116.7
X103.351Y-77.851
X103.451Y-128.251
X103.551Y-56.391
X103.7Y-117.2
X103.73Y-72.03
X103.73Y-75.48
X103.73Y-107.856
X103.73Y-111.306
X103.751Y-72.951
X103.751Y-80.051
X103.751Y-108.851
X103.801Y-51.734
X103.851Y-78.951
X103.95Y-46.55
X104.0Y-133.5
X104.201Y-54.651
X104.201Y-56.391
X104.23Y-72.03
X104.23Y-107.856
X104.251Y-71.151
X104.251Y-81.151
X104.251Y-106.751
X104.351Y-80.051
X104.451Y-121.151
X104.5Y-120.5
X104.701Y-128.251
X104.851Y-81.151
X104.95Y-136.55
X104.951Y-56.391
X105.551Y-120.651
X105.6Y-120.0
X105.851Y-73.051
X105.851Y-74.505
X105.851Y-75.145
X105.851Y-75.851
X105.851Y-76.351
X105.851Y-110.331
X105.851Y-110.971
X105.851Y-111.651
X105.851Y-112.151
X105.859Y-72.551
X105.95Y-46.55
X106.0Y-58.5
X106.0Y-63.5
X106.0Y-78.5
X106.0Y-81.0
X106.0Y-88.5
X106.0Y-93.5
X106.0Y-98.0
X106.0Y-103.5
X106.0Y-118.5
X106.0Y-123.5
X106.0Y-128.5
X106.051Y-108.851
X106.051Y-109.351
X106.95Y-136.55
X107.95Y-46.55
X108.0Y-81.0
X108.5Y-77.0
X108.95Y-136.55
X109.5Y-72.0
X109.95Y-46.55
X110.95Y-136.55
X111.0Y-53.5
X111.0Y-58.5
X111.0Y-63.5
X111.0Y-88.5
X111.0Y-93.5
X111.0Y-107.5
X111.0Y-112.5
X111.0Y-118.5
X111.0Y-123.5
X111.0Y-128.5
X111.0Y-133.5
X111.95Y-46.55
X112.296Y-128.651
X112.296Y-131.151
X112.801Y-70.805
X112.801Y-72.305
X112.801Y-73.805
X112.801Y-75.305
X112.801Y-87.718
X112.801Y-89.218
X112.801Y-90.718
X112.801Y-92.218
X112.801Y-93.718
X112.801Y-95.218
X112.801Y-106.631
X112.801Y-108.131
X112.801Y-109.631
X112.801Y-111.131
X112.936Y-128.651
X112.936Y-131.151
X112.95Y-131.75
X112.95Y-136.55
X112.951Y-129.25
X113.95Y-46.55
X114.95Y-136.55
X115.751Y-69.405
X115.751Y-70.655
X115.751Y-71.905
X115.751Y-73.155
X115.751Y-74.405
X115.751Y-75.655
X115.751Y-76.905
X115.751Y-78.155
X115.751Y-85.818
X115.751Y-87.068
X115.751Y-88.318
X115.751Y-89.568
X115.751Y-90.818
X115.751Y-92.068
X115.751Y-93.318
X115.751Y-94.568
X115.751Y-95.818
X115.751Y-97.068
X115.751Y-105.231
X115.751Y-106.481
X115.751Y-107.731
X115.751Y-108.981
X115.751Y-110.231
X115.751Y-111.481
X115.751Y-112.731
X115.751Y-113.981
X115.9Y-58.6
X115.95Y-46.55
X116.0Y-53.5
X116.0Y-68.0
X116.0Y-118.5
X116.5Y-62.9
X116.95Y-136.55
X117.0Y-62.9
X117.491Y-68.751
X117.491Y-69.405
X117.491Y-70.051
X117.491Y-70.655
X117.491Y-71.316
X117.491Y-71.905
X117.491Y-72.551
X117.491Y-73.155
X117.491Y-85.151
X117.491Y-85.818
X117.491Y-86.451
X117.491Y-87.068
X117.491Y-87.651
X117.491Y-88.318
X117.491Y-88.951
X117.491Y-89.568
X117.491Y-104.551
X117.491Y-105.231
X117.491Y-105.851
X117.491Y-106.481
X117.491Y-107.051
X117.491Y-107.731
X117.491Y-108.351
X117.491Y-108.981
X117.95Y-46.55
X118.3Y-62.9
X118.5Y-79.5
X118.851Y-122.751
X118.853Y-62.88
X118.9Y-130.6
X118.95Y-120.2
X118.95Y-132.45
X118.95Y-136.55
X119.3Y-131.9
X119.351Y-120.651
X119.376Y-73.005
X119.376Y-74.505
X119.376Y-90.432
X119.376Y-91.932
X119.376Y-108.831
X119.376Y-110.331
X119.601Y-129.901
X119.601Y-132.451
X119.851Y-71.051
X119.851Y-88.451
X119.851Y-106.851
X119.851Y-121.151
X119.851Y-122.751
X119.851Y-72.03
X119.851Y-75.48
X119.851Y-89.457
X119.851Y-92.907
X119.851Y-107.856
X119.851Y-111.306
X119.95Y-46.55
X120.0Y-81.0
X120.3Y-74.0
X120.3Y-74.5
X120.351Y-75.48
X120.351Y-91.451
X120.351Y-91.951
X120.351Y-92.907
X120.351Y-109.851
X120.351Y-110.351
X120.351Y-111.306
X120.351Y-121.651
X120.351Y-122.751
X120.55Y-127.45
X120.55Y-127.95
X120.55Y-128.95
X120.55Y-129.45
X120.8Y-74.5
X120.851Y-72.03
X120.851Y-75.48
X120.851Y-89.457
X120.851Y-92.907
X120.851Y-107.856
X120.851Y-111.306
X120.851Y-71.051
X120.851Y-88.451
X120.851Y-91.951
X120.851Y-106.851
X120.851Y-110.351
X120.851Y-122.151
X120.95Y-136.55
X121.0Y-53.5
X121.0Y-58.5
X121.0Y-63.5
X121.0Y-68.0
X121.351Y-74.5
X121.351Y-91.951
X121.351Y-110.351
X121.351Y-120.226
X121.351Y-122.751
X121.851Y-71.051
X121.851Y-72.03
X121.851Y-75.48
X121.851Y-78.151
X121.851Y-88.451
X121.851Y-89.457
X121.851Y-92.907
X121.851Y-95.251
X121.851Y-106.851
X121.851Y-107.856
X121.851Y-111.306
X121.95Y-46.55
X122.3Y-74.5
X122.351Y-78.151
X122.351Y-79.351
X122.351Y-91.951
X122.351Y-95.251
X122.351Y-96.351
X122.351Y-110.351
X122.351Y-72.03
X122.351Y-89.457
X122.351Y-107.856
X122.851Y-72.03
X122.851Y-72.951
X122.851Y-75.48
X122.851Y-79.351
X122.851Y-80.451
X122.851Y-89.457
X122.851Y-90.451
X122.851Y-92.907
X122.851Y-96.351
X122.851Y-97.451
X122.851Y-107.856
X122.851Y-108.851
X122.851Y-111.306
X122.95Y-136.55
X123.251Y-61.751
X123.251Y-62.351
X123.351Y-72.03
X123.351Y-89.457
X123.351Y-107.856
X123.351Y-71.051
X123.351Y-80.451
X123.351Y-81.651
X123.351Y-88.451
X123.351Y-98.551
X123.351Y-106.851
X123.451Y-97.451
X123.851Y-81.651
X123.851Y-98.551
X123.95Y-46.55
X124.051Y-105.751
X124.476Y-61.259
X124.501Y-106.001
X124.552Y-61.851
X124.851Y-76.552
X124.851Y-75.951
X124.95Y-136.55
X124.951Y-72.551
X124.951Y-73.051
X124.951Y-89.951
X124.951Y-90.451
X124.951Y-93.251
X124.951Y-93.751
X124.951Y-108.851
X124.951Y-109.551
X125.0Y-74.505
X125.0Y-75.145
X125.0Y-91.928
X125.0Y-92.568
X125.0Y-110.331
X125.0Y-110.971
X125.0Y-116.2
X125.601Y-60.726
X125.651Y-61.351
X125.95Y-46.55
X126.0Y-63.5
X126.0Y-89.0
X126.0Y-116.2
X126.0Y-123.5
X126.0Y-128.5
X126.451Y-95.229
X126.451Y-126.511
X126.475Y-94.028
X126.651Y-60.251
X126.651Y-60.951
X126.685Y-54.651
X126.685Y-73.851
X126.685Y-108.96
X126.95Y-136.55
X126.951Y-94.251
X127.1Y-95.2
X127.135Y-126.511
X127.135Y-128.251
X127.351Y-116.551
X127.351Y-117.051
X127.751Y-126.511
X127.935Y-54.651
X127.935Y-73.851
X127.935Y-108.96
X127.95Y-46.55
X128.0Y-90.0
X128.251Y-63.851
X128.351Y-83.051
X128.385Y-126.511
X128.385Y-128.251
X128.535Y-131.201
X128.551Y-120.651
X128.551Y-121.651
X128.551Y-123.151
X128.551Y-124.151
X128.851Y-63.851
X128.851Y-83.051
X128.95Y-136.55
X129.051Y-126.511
X129.185Y-54.651
X129.185Y-73.851
X129.185Y-108.96
X129.36Y-58.751
X129.36Y-59.251
X129.36Y-59.751
X129.36Y-60.751
X129.36Y-61.751
X129.36Y-77.951
X129.36Y-78.451
X129.36Y-78.951
X129.36Y-79.951
X129.36Y-80.951
X129.36Y-113.06
X129.36Y-113.56
X129.36Y-114.06
X129.36Y-115.06
X129.36Y-116.06
X129.535Y-51.701
X129.535Y-70.901
X129.535Y-106.01
X129.635Y-126.511
X129.635Y-128.251
X129.695Y-63.9
X129.695Y-83.2
X129.695Y-118.2
X129.76Y-120.651
X129.76Y-121.151
X129.76Y-121.651
X129.76Y-122.151
X129.76Y-123.151
X129.76Y-124.151
X129.95Y-46.55
X130.0Y-91.0
X130.035Y-131.201
X130.151Y-59.051
X130.151Y-59.551
X130.151Y-60.251
X130.151Y-61.251
X130.251Y-78.351
X130.251Y-78.851
X130.251Y-79.451
X130.251Y-80.451
X130.251Y-126.511
X130.335Y-58.276
X130.335Y-63.9
X130.335Y-77.476
X130.335Y-83.2
X130.335Y-112.585
X130.335Y-118.2
X130.351Y-113.551
X130.351Y-114.051
X130.351Y-114.551
X130.351Y-115.551
X130.435Y-54.651
X130.435Y-73.851
X130.435Y-108.96
X130.651Y-59.051
X130.735Y-124.626
X130.751Y-119.051
X130.751Y-121.151
X130.8Y-78.351
X130.851Y-113.551
X130.885Y-126.511
X130.885Y-128.251
X130.95Y-136.55
X131.0Y-68.5
X131.0Y-133.5
X131.035Y-51.701
X131.035Y-70.901
X131.035Y-106.01
X131.251Y-119.051
X131.351Y-63.851
X131.535Y-131.201
X131.685Y-54.651
X131.685Y-56.391
X131.685Y-73.851
X131.685Y-75.591
X131.685Y-108.96
X131.685Y-110.7
X131.751Y-123.651
X131.835Y-58.276
X131.835Y-77.476
X131.835Y-83.051
X131.835Y-112.585
X131.851Y-63.851
X131.851Y-80.951
X131.851Y-116.051
X131.851Y-118.151
X131.95Y-46.55
X131.951Y-61.651
X132.135Y-128.251
X132.231Y-119.051
X132.235Y-124.626
X132.251Y-121.651
X132.251Y-122.651
X132.251Y-123.151
X132.251Y-123.651
X132.298Y-56.404
X132.351Y-75.591
X132.351Y-83.051
X132.351Y-110.7
X132.351Y-118.151
X132.535Y-51.701
X132.535Y-70.901
X132.535Y-106.01
X132.81Y-58.751
X132.81Y-59.751
X132.81Y-60.751
X132.81Y-61.251
X132.81Y-61.751
X132.81Y-62.251
X132.81Y-77.951
X132.81Y-78.951
X132.81Y-79.951
X132.81Y-80.451
X132.81Y-80.951
X132.81Y-81.451
X132.81Y-113.06
X132.81Y-114.06
X132.81Y-115.06
X132.81Y-115.56
X132.81Y-116.06
X132.81Y-116.56
X132.871Y-119.051
X132.935Y-54.651
X132.935Y-56.391
X132.935Y-73.851
X132.935Y-75.591
X132.935Y-108.96
X132.935Y-110.7
X132.95Y-136.55
X133.0Y-66.5
X133.035Y-131.201
X133.21Y-121.151
X133.21Y-122.151
X133.21Y-123.151
X133.21Y-123.651
X133.21Y-124.151
X133.385Y-128.251
X133.551Y-56.391
X133.551Y-75.591
X133.6Y-110.7
X133.651Y-58.751
X133.651Y-59.751
X133.651Y-60.751
X133.651Y-62.251
X133.651Y-119.051
X133.751Y-77.951
X133.751Y-78.951
X133.751Y-79.951
X133.751Y-81.451
X133.851Y-113.051
X133.851Y-114.051
X133.851Y-115.051
X133.851Y-116.551
X133.95Y-46.55
X134.0Y-95.5
X134.0Y-98.0
X134.035Y-51.701
X134.035Y-70.901
X134.035Y-106.01
X134.151Y-119.051
X134.185Y-54.651
X134.185Y-56.391
X134.185Y-73.851
X134.185Y-75.591
X134.185Y-108.96
X134.185Y-110.7
X134.635Y-128.251
X134.798Y-56.391
X134.8Y-110.7
X134.851Y-75.591
X134.931Y-99.651
X134.95Y-136.55
X135.0Y-83.0
X135.435Y-54.651
X135.435Y-56.391
X135.435Y-73.851
X135.435Y-75.591
X135.435Y-108.96
X135.435Y-110.7
X135.451Y-117.151
X135.851Y-99.651
X135.885Y-128.251
X135.95Y-46.55
X136.0Y-63.5
X136.0Y-77.0
X136.0Y-79.0
X136.0Y-95.5
X136.0Y-98.0
X136.0Y-113.5
X136.051Y-56.391
X136.051Y-75.591
X136.151Y-110.7
X136.151Y-114.551
X136.151Y-115.051
X136.151Y-122.151
X136.576Y-121.726
X136.651Y-117.051
X136.731Y-99.651
X136.95Y-136.55
X137.0Y-59.0
X137.251Y-114.551
X137.251Y-115.551
X137.251Y-121.651
X137.751Y-117.051
X137.751Y-121.151
X137.8Y-99.6
X137.95Y-46.55
X138.0Y-52.0
X138.0Y-55.0
X138.351Y-114.551
X138.351Y-116.051
X138.351Y-121.151
X138.5Y-97.0
X138.751Y-62.251
X138.751Y-62.851
X138.851Y-120.651
X138.95Y-136.55
X138.951Y-92.451
X138.951Y-93.251
X138.951Y-117.051
X139.051Y-81.451
X139.051Y-82.051
X139.5Y-74.5
X139.5Y-76.5
X139.5Y-78.6
X139.551Y-116.551
X139.551Y-120.551
X139.922Y-92.489
X139.922Y-93.289
X139.922Y-94.089
X139.922Y-95.689
X139.922Y-96.489
X139.95Y-46.55
X139.951Y-107.311
X140.051Y-61.751
X140.051Y-62.451
X140.051Y-117.051
X140.051Y-120.051
X140.151Y-80.951
X140.151Y-81.551
X140.151Y-126.511
X140.301Y-92.101
X140.301Y-92.901
X140.369Y-97.689
X140.722Y-96.489
X140.722Y-97.289
X140.722Y-98.089
X140.751Y-107.311
X140.751Y-109.051
X140.751Y-126.511
X140.751Y-128.251
X140.801Y-54.651
X140.801Y-73.751
X140.825Y-81.701
X140.95Y-136.55
X141.0Y-63.5
X141.0Y-78.0
X141.251Y-61.251
X141.251Y-61.851
X141.251Y-80.451
X141.351Y-81.051
X141.351Y-126.511
X141.351Y-81.704
X141.451Y-107.311
X141.551Y-94.851
X141.571Y-96.551
X141.607Y-89.289
X141.607Y-94.089
X141.851Y-81.701
X141.851Y-95.651
X141.95Y-46.55
X142.001Y-107.311
X142.001Y-109.051
X142.001Y-126.511
X142.001Y-128.251
X142.051Y-54.651
X142.051Y-73.751
X142.322Y-87.689
X142.322Y-89.289
X142.351Y-60.751
X142.351Y-61.351
X142.351Y-79.951
X142.351Y-80.451
X142.351Y-81.501
X142.351Y-94.089
X142.5Y-67.5
X142.551Y-107.311
X142.651Y-51.701
X142.651Y-70.801
X142.651Y-112.001
X142.651Y-126.511
X142.651Y-131.201
X142.701Y-82.001
X142.9Y-88.1
X142.95Y-136.55
X143.0Y-133.5
X143.1Y-92.5
X143.122Y-85.289
X143.122Y-86.889
X143.122Y-95.689
X143.251Y-107.311
X143.251Y-109.051
X143.251Y-126.511
X143.251Y-128.251
X143.301Y-54.651
X143.301Y-73.751
X143.351Y-101.451
X143.351Y-102.951
X143.351Y-103.951
X143.351Y-104.951
X143.351Y-120.651
X143.351Y-122.151
X143.351Y-123.151
X143.351Y-124.151
X143.381Y-81.971
X143.501Y-85.751
X143.501Y-87.301
X143.7Y-92.5
X143.851Y-107.311
X143.851Y-126.511
X143.922Y-95.689
X143.95Y-46.55
X143.951Y-63.851
X143.981Y-82.571
X144.002Y-90.889
X144.002Y-91.689
X144.151Y-51.701
X144.151Y-70.801
X144.151Y-112.001
X144.151Y-131.201
X144.391Y-101.451
X144.391Y-101.951
X144.391Y-102.451
X144.391Y-102.951
X144.391Y-103.951
X144.391Y-104.951
X144.391Y-120.601
X144.391Y-121.101
X144.391Y-121.601
X144.391Y-122.101
X144.391Y-123.101
X144.391Y-124.101
X144.451Y-63.851
X144.501Y-107.311
X144.501Y-109.051
X144.501Y-126.511
X144.501Y-128.251
X144.551Y-54.651
X144.551Y-73.751
X144.551Y-82.951
X144.722Y-89.289
X144.722Y-90.089
X144.722Y-90.889
X144.722Y-91.689
X144.851Y-118.951
X144.95Y-136.55
X144.962Y-58.751
X144.962Y-59.251
X144.962Y-59.751
X144.962Y-60.751
X144.962Y-61.751
X144.962Y-77.814
X144.962Y-78.314
X144.962Y-78.814
X144.962Y-79.814
X144.962Y-80.814
X145.101Y-96.751
X145.301Y-63.9
X145.301Y-82.951
X145.351Y-99.851
X145.351Y-101.951
X145.351Y-118.951
X145.351Y-121.051
X145.366Y-105.426
X145.366Y-124.576
X145.522Y-89.289
X145.522Y-90.089
X145.522Y-90.889
X145.522Y-91.689
X145.522Y-92.489
X145.522Y-93.289
X145.522Y-95.689
X145.651Y-51.701
X145.651Y-70.801
X145.651Y-112.001
X145.651Y-131.201
X145.751Y-59.051
X145.751Y-59.551
X145.751Y-109.051
X145.751Y-128.251
X145.801Y-54.651
X145.801Y-73.751
X145.851Y-60.251
X145.851Y-61.3
X145.851Y-78.251
X145.851Y-78.751
X145.851Y-79.251
X145.851Y-80.351
X145.901Y-95.301
X145.901Y-96.751
X145.937Y-58.276
X145.937Y-77.339
X145.941Y-63.9
X145.941Y-82.951
X145.95Y-46.55
X146.0Y-68.5
X146.051Y-99.851
X146.251Y-59.051
X146.322Y-89.289
X146.322Y-90.089
X146.322Y-90.889
X146.322Y-91.689
X146.322Y-92.489
X146.322Y-93.289
X146.351Y-78.251
X146.351Y-104.451
X146.351Y-123.651
X146.751Y-96.751
X146.831Y-118.951
X146.851Y-102.451
X146.851Y-103.451
X146.851Y-103.951
X146.851Y-104.451
X146.851Y-121.651
X146.851Y-122.651
X146.851Y-123.151
X146.851Y-123.651
X146.861Y-99.8
X146.866Y-105.426
X146.866Y-124.576
X146.95Y-136.55
X147.001Y-109.051
X147.001Y-128.251
X147.051Y-54.651
X147.051Y-73.751
X147.122Y-89.289
X147.122Y-90.089
X147.122Y-90.889
X147.122Y-91.689
X147.122Y-92.489
X147.151Y-51.701
X147.151Y-70.801
X147.151Y-112.001
X147.151Y-131.201
X147.437Y-58.276
X147.437Y-77.339
X147.451Y-63.851
X147.451Y-80.851
X147.451Y-82.951
X147.471Y-118.951
X147.501Y-99.8
X147.551Y-59.751
X147.551Y-61.751
X147.601Y-96.751
X147.841Y-101.951
X147.841Y-102.951
X147.841Y-103.951
X147.841Y-104.451
X147.841Y-104.951
X147.841Y-121.101
X147.841Y-122.101
X147.841Y-123.101
X147.841Y-123.601
X147.841Y-124.101
X147.922Y-89.289
X147.922Y-90.089
X147.922Y-90.889
X147.922Y-91.689
X147.922Y-92.489
X147.95Y-46.55
X148.051Y-63.851
X148.051Y-82.951
X148.151Y-99.851
X148.251Y-109.051
X148.251Y-128.251
X148.301Y-54.651
X148.301Y-56.391
X148.301Y-73.751
X148.301Y-75.491
X148.412Y-58.751
X148.412Y-59.751
X148.412Y-60.751
X148.412Y-61.251
X148.412Y-61.751
X148.412Y-62.251
X148.412Y-77.814
X148.412Y-78.814
X148.412Y-79.814
X148.412Y-80.314
X148.412Y-80.814
X148.412Y-81.314
X148.451Y-118.951
X148.651Y-51.701
X148.651Y-70.801
X148.651Y-112.001
X148.651Y-131.201
X148.722Y-90.089
X148.722Y-90.889
X148.722Y-91.689
X148.95Y-136.55
X148.951Y-56.391
X148.951Y-75.491
X148.951Y-118.951
X149.251Y-58.751
X149.251Y-59.751
X149.251Y-60.751
X149.251Y-62.251
X149.351Y-77.751
X149.351Y-78.751
X149.351Y-79.751
X149.351Y-80.751
X149.442Y-90.089
X149.501Y-109.051
X149.501Y-128.251
X149.551Y-54.651
X149.551Y-56.391
X149.551Y-73.751
X149.551Y-75.491
X149.851Y-103.101
X149.95Y-46.55
X150.0Y-133.5
X150.151Y-51.701
X150.151Y-56.391
X150.151Y-70.801
X150.151Y-75.491
X150.151Y-112.001
X150.151Y-131.201
X150.322Y-88.569
X150.351Y-103.101
X150.402Y-93.289
X150.551Y-121.551
X150.551Y-122.151
X150.751Y-96.851
X150.751Y-109.051
X150.751Y-128.251
X150.801Y-54.651
X150.801Y-56.391
X150.801Y-73.751
X150.801Y-75.491
X150.851Y-103.101
X150.95Y-136.55
X151.0Y-63.5
X151.0Y-68.5
X151.122Y-88.489
X151.122Y-89.289
X151.122Y-93.289
X151.122Y-97.289
X151.351Y-103.101
X151.451Y-56.391
X151.451Y-75.491
X151.551Y-96.851
X151.651Y-121.051
X151.651Y-121.651
X151.851Y-103.101
X151.922Y-85.289
X151.922Y-97.289
X151.95Y-46.55
X152.001Y-109.051
X152.001Y-128.251
X152.051Y-54.651
X152.051Y-56.391
X152.051Y-73.751
X152.051Y-75.491
X152.301Y-85.701
X152.301Y-86.501
X152.301Y-87.301
X152.301Y-88.101
X152.301Y-88.901
X152.301Y-89.751
X152.301Y-90.501
X152.301Y-91.301
X152.301Y-92.101
X152.301Y-95.301
X152.301Y-96.101
X152.351Y-103.101
X152.651Y-56.391
X152.651Y-75.491
X152.722Y-86.089
X152.722Y-86.889
X152.722Y-87.689
X152.722Y-88.489
X152.722Y-89.289
X152.722Y-90.089
X152.722Y-90.889
X152.722Y-91.689
X152.722Y-94.889
X152.722Y-95.689
X152.722Y-96.489
X152.751Y-120.551
X152.751Y-121.151
X152.851Y-103.101
X152.95Y-136.55
X153.151Y-81.351
X153.151Y-81.851
X153.451Y-62.176
X153.451Y-62.751
X153.451Y-116.551
X153.451Y-117.151
X153.851Y-120.051
X153.851Y-120.651
X153.95Y-46.55
X154.0Y-52.0
X154.0Y-55.0
X154.0Y-58.0
X154.0Y-101.7
X154.151Y-108.851
X154.152Y-108.151
X154.251Y-80.851
X154.251Y-81.351
X154.451Y-61.751
X154.451Y-62.451
X154.651Y-107.751
X154.651Y-116.051
X154.651Y-116.651
X154.652Y-107.151
X154.7Y-100.9
X154.95Y-136.55
X155.0Y-75.5
X155.151Y-106.651
X155.152Y-106.051
X155.3Y-92.3
X155.351Y-80.351
X155.351Y-80.851
X155.4Y-100.0
X155.551Y-61.851
X155.551Y-61.252
X155.651Y-104.951
X155.651Y-105.651
X155.851Y-115.551
X155.851Y-116.151
X155.95Y-46.55
X156.0Y-63.5
X156.0Y-123.5
X156.0Y-128.5
X156.064Y-92.3
X156.551Y-79.751
X156.551Y-80.251
X156.651Y-126.511
X156.751Y-60.751
X156.751Y-61.451
X156.918Y-54.651
X156.918Y-73.851
X156.918Y-108.96
X156.95Y-136.55
X156.951Y-115.051
X156.951Y-115.651
X156.964Y-92.321
X157.368Y-126.511
X157.368Y-128.251
X157.95Y-46.55
X157.951Y-126.511
X158.168Y-54.651
X158.168Y-73.851
X158.168Y-108.96
X158.45Y-118.5
X158.451Y-82.775
X158.551Y-63.851
X158.618Y-126.511
X158.618Y-128.251
X158.768Y-131.201
X158.9Y-119.0
X158.95Y-136.55
X158.951Y-120.651
X158.951Y-122.151
X158.951Y-123.151
X158.951Y-124.151
X159.0Y-133.5
X159.001Y-83.051
X159.051Y-63.851
X159.051Y-118.051
X159.251Y-126.511
X159.3Y-119.4
X159.418Y-54.651
X159.418Y-73.851
X159.418Y-108.96
X159.593Y-58.751
X159.593Y-59.251
X159.593Y-59.751
X159.593Y-60.751
X159.593Y-61.751
X159.593Y-77.951
X159.593Y-78.451
X159.593Y-78.951
X159.593Y-79.951
X159.593Y-80.951
X159.593Y-113.06
X159.593Y-113.56
X159.593Y-114.06
X159.593Y-115.06
X159.593Y-116.06
X159.768Y-51.701
X159.768Y-70.901
X159.768Y-106.01
X159.868Y-126.511
X159.868Y-128.251
X159.928Y-83.1
X159.93Y-118.2
X159.931Y-63.9
X159.95Y-46.55
X159.993Y-120.651
X159.993Y-121.151
X159.993Y-121.651
X159.993Y-122.151
X159.993Y-123.151
X159.993Y-124.151
X160.268Y-131.201
X160.433Y-61.369
X160.451Y-59.151
X160.451Y-59.651
X160.451Y-60.251
X160.551Y-78.351
X160.551Y-78.851
X160.551Y-79.451
X160.551Y-80.451
X160.551Y-113.551
X160.551Y-114.051
X160.551Y-114.551
X160.551Y-115.551
X160.551Y-126.511
X160.568Y-58.276
X160.568Y-77.476
X160.568Y-83.1
X160.568Y-112.585
X160.57Y-118.2
X160.571Y-63.9
X160.668Y-54.651
X160.668Y-73.851
X160.668Y-108.96
X160.751Y-91.401
X160.751Y-92.351
X160.751Y-93.301
X160.95Y-136.55
X160.951Y-59.151
X160.951Y-121.151
X160.968Y-124.626
X161.0Y-68.5
X161.051Y-78.351
X161.051Y-113.551
X161.118Y-126.511
X161.118Y-128.251
X161.268Y-51.701
X161.268Y-70.901
X161.268Y-106.01
X161.768Y-131.201
X161.918Y-54.651
X161.918Y-56.391
X161.918Y-73.851
X161.918Y-75.591
X161.918Y-108.96
X161.918Y-110.7
X161.95Y-46.55
X161.951Y-123.651
X162.051Y-63.851
X162.051Y-80.951
X162.051Y-83.051
X162.051Y-116.051
X162.068Y-58.276
X162.068Y-77.476
X162.068Y-112.585
X162.101Y-118.401
X162.2Y-102.7
X162.21Y-61.81
X162.368Y-128.251
X162.451Y-121.651
X162.451Y-122.651
X162.451Y-123.151
X162.451Y-123.651
X162.468Y-119.0
X162.468Y-124.626
X162.551Y-56.391
X162.551Y-63.851
X162.551Y-75.591
X162.551Y-110.7
X162.651Y-83.051
X162.751Y-118.451
X162.768Y-51.701
X162.768Y-70.901
X162.768Y-106.01
X162.95Y-136.55
X163.043Y-58.751
X163.043Y-59.751
X163.043Y-60.751
X163.043Y-61.251
X163.043Y-61.751
X163.043Y-62.251
X163.043Y-77.951
X163.043Y-78.951
X163.043Y-79.951
X163.043Y-80.451
X163.043Y-80.951
X163.043Y-81.451
X163.043Y-113.06
X163.043Y-114.06
X163.043Y-115.06
X163.043Y-115.56
X163.043Y-116.06
X163.043Y-116.56
X163.108Y-119.0
X163.168Y-54.651
X163.168Y-56.391
X163.168Y-73.851
X163.168Y-75.591
X163.168Y-108.96
X163.168Y-110.7
X163.268Y-131.201
X163.443Y-121.151
X163.443Y-122.151
X163.443Y-123.151
X163.443Y-123.651
X163.443Y-124.151
X163.45Y-102.7
X163.618Y-128.251
X163.751Y-56.391
X163.8Y-83.35
X163.8Y-86.851
X163.8Y-87.4
X163.851Y-75.591
X163.851Y-110.7
X163.851Y-119.051
X163.95Y-46.55
X164.051Y-58.751
X164.051Y-59.751
X164.051Y-60.751
X164.051Y-62.251
X164.051Y-77.951
X164.051Y-78.951
X164.051Y-79.951
X164.051Y-81.451
X164.051Y-113.051
X164.051Y-114.051
X164.051Y-115.051
X164.051Y-116.551
X164.2Y-88.1
X164.2Y-88.6
X164.268Y-51.701
X164.268Y-70.901
X164.268Y-106.2
X164.418Y-54.651
X164.418Y-56.391
X164.418Y-73.851
X164.418Y-75.591
X164.418Y-108.96
X164.418Y-110.7
X164.451Y-119.051
X164.5Y-133.5
X164.868Y-128.251
X164.95Y-136.55
X165.051Y-56.391
X165.051Y-75.591
X165.051Y-110.7
X165.651Y-111.351
X165.668Y-54.651
X165.668Y-56.391
X165.668Y-73.851
X165.668Y-75.591
X165.668Y-108.96
X165.668Y-110.7
X165.95Y-46.55
X166.0Y-58.5
X166.0Y-63.5
X166.0Y-90.5
X166.051Y-116.635
X166.051Y-117.151
X166.061Y-114.975
X166.118Y-128.251
X166.251Y-75.591
X166.351Y-56.391
X166.95Y-136.55
X167.151Y-81.876
X167.351Y-116.151
X167.351Y-116.651
X167.351Y-122.051
X167.351Y-122.651
X167.451Y-79.451
X167.451Y-81.451
X167.551Y-74.401
X167.7Y-71.965
X167.7Y-72.605
X167.7Y-90.368
X167.7Y-91.008
X167.7Y-107.791
X167.7Y-108.431
X167.751Y-70.651
X167.751Y-71.151
X167.751Y-92.551
X167.751Y-109.901
X167.751Y-110.451
X167.752Y-91.951
X167.851Y-80.951
X167.851Y-89.451
X167.852Y-88.851
X167.95Y-46.55
X167.976Y-74.751
X168.051Y-79.451
X168.351Y-80.451
X168.351Y-105.851
X168.451Y-121.551
X168.451Y-122.151
X168.751Y-79.451
X168.751Y-79.951
X168.751Y-105.551
X168.751Y-115.551
X168.751Y-116.051
X168.801Y-83.851
X168.851Y-81.876
X168.851Y-101.451
X168.95Y-136.55
X169.301Y-84.951
X169.351Y-76.151
X169.351Y-81.451
X169.351Y-94.451
X169.351Y-101.451
X169.351Y-102.651
X169.351Y-112.051
X169.351Y-75.08
X169.351Y-93.479
X169.351Y-110.906
X169.426Y-83.851
X169.651Y-121.051
X169.651Y-121.651
X169.801Y-86.051
X169.851Y-71.63
X169.851Y-74.151
X169.851Y-75.08
X169.851Y-80.951
X169.851Y-84.951
X169.851Y-90.029
X169.851Y-92.551
X169.851Y-93.479
X169.851Y-102.651
X169.851Y-103.751
X169.851Y-107.456
X169.851Y-109.951
X169.851Y-110.906
X169.95Y-46.55
X170.151Y-114.958
X170.151Y-115.551
X170.251Y-104.851
X170.301Y-87.251
X170.351Y-75.08
X170.351Y-80.451
X170.351Y-93.479
X170.351Y-110.906
X170.351Y-72.551
X170.351Y-86.051
X170.351Y-91.051
X170.351Y-103.751
X170.351Y-108.451
X170.751Y-120.551
X170.751Y-121.151
X170.851Y-71.63
X170.851Y-75.08
X170.851Y-76.151
X170.851Y-79.951
X170.851Y-87.251
X170.851Y-90.029
X170.851Y-93.479
X170.851Y-94.451
X170.851Y-104.851
X170.851Y-107.456
X170.851Y-110.906
X170.851Y-112.051
X170.95Y-136.55
X171.0Y-53.5
X171.0Y-58.5
X171.0Y-118.5
X171.0Y-123.5
X171.0Y-128.5
X171.0Y-133.5
X171.351Y-72.551
X171.351Y-91.051
X171.351Y-108.451
X171.426Y-62.676
X171.451Y-60.251
X171.451Y-79.951
X171.451Y-80.451
X171.451Y-80.951
X171.451Y-81.451
X171.851Y-60.751
X171.851Y-76.151
X171.851Y-90.951
X171.851Y-94.451
X171.851Y-108.451
X171.851Y-112.051
X171.851Y-71.63
X171.851Y-75.08
X171.851Y-90.029
X171.851Y-93.479
X171.851Y-107.456
X171.851Y-110.906
X171.95Y-46.55
X171.951Y-72.551
X172.351Y-60.251
X172.351Y-61.251
X172.351Y-71.63
X172.351Y-90.029
X172.351Y-90.951
X172.351Y-91.451
X172.351Y-107.456
X172.351Y-108.451
X172.351Y-108.951
X172.451Y-72.551
X172.451Y-73.051
X172.851Y-71.63
X172.851Y-75.08
X172.851Y-90.029
X172.851Y-93.479
X172.851Y-107.456
X172.851Y-110.906
X172.851Y-60.251
X172.851Y-61.751
X172.851Y-76.151
X172.851Y-94.451
X172.851Y-112.051
X172.95Y-136.55
X173.326Y-72.605
X173.326Y-74.105
X173.326Y-91.004
X173.326Y-92.504
X173.326Y-108.431
X173.326Y-109.931
X173.351Y-62.251
X173.751Y-62.676
X173.751Y-60.251
X173.95Y-46.55
X174.95Y-136.55
X175.211Y-73.955
X175.211Y-74.551
X175.211Y-75.205
X175.211Y-75.851
X175.211Y-76.455
X175.211Y-77.051
X175.211Y-77.705
X175.211Y-78.351
X175.211Y-93.368
X175.211Y-94.001
X175.211Y-94.618
X175.211Y-95.201
X175.211Y-95.868
X175.211Y-96.501
X175.211Y-97.118
X175.211Y-97.751
X175.211Y-109.781
X175.211Y-110.451
X175.211Y-111.031
X175.211Y-111.651
X175.211Y-112.281
X175.211Y-112.951
X175.211Y-113.531
X175.211Y-114.251
X175.885Y-63.5
X175.95Y-46.55
X176.0Y-53.5
X176.0Y-58.5
X176.0Y-67.0
X176.0Y-118.5
X176.0Y-123.5
X176.0Y-128.5
X176.0Y-133.5
X176.95Y-136.55
X176.951Y-68.955
X176.951Y-70.205
X176.951Y-71.455
X176.951Y-72.705
X176.951Y-73.955
X176.951Y-75.205
X176.951Y-76.455
X176.951Y-77.705
X176.951Y-85.868
X176.951Y-87.118
X176.951Y-88.368
X176.951Y-89.618
X176.951Y-90.868
X176.951Y-92.118
X176.951Y-93.368
X176.951Y-94.618
X176.951Y-95.868
X176.951Y-97.118
X176.951Y-104.781
X176.951Y-106.031
X176.951Y-107.281
X176.951Y-108.531
X176.951Y-109.781
X176.951Y-111.031
X176.951Y-112.281
X176.951Y-113.531
X177.95Y-46.55
X178.95Y-136.55
X179.901Y-71.805
X179.901Y-73.305
X179.901Y-74.805
X179.901Y-76.305
X179.901Y-87.718
X179.901Y-89.218
X179.901Y-90.718
X179.901Y-92.218
X179.901Y-93.718
X179.901Y-95.218
X179.901Y-107.631
X179.901Y-109.131
X179.901Y-110.631
X179.901Y-112.131
X179.95Y-46.55
X180.95Y-136.55
X181.0Y-53.5
X181.0Y-58.5
X181.0Y-63.5
X181.0Y-67.0
X181.0Y-88.5
X181.0Y-93.5
X181.0Y-113.5
X181.0Y-118.5
X181.0Y-123.5
X181.0Y-128.5
X181.0Y-133.5
X181.95Y-46.55
X182.0Y-72.0
X182.95Y-136.55
X183.95Y-46.55
X184.95Y-136.55
X185.95Y-46.55
X186.0Y-53.5
X186.0Y-58.5
X186.0Y-63.5
X186.0Y-78.5
X186.0Y-88.5
X186.0Y-93.5
X186.0Y-118.5
X186.0Y-123.5
X186.0Y-128.5
X186.95Y-136.55
X186.951Y-70.551
X186.951Y-71.051
X186.951Y-71.965
X186.951Y-72.605
X186.951Y-74.151
X186.951Y-74.751
X186.951Y-106.451
X186.951Y-106.951
X186.951Y-107.791
X186.951Y-108.431
X186.951Y-109.901
X186.951Y-110.401
X187.2Y-62.9
X187.251Y-62.251
X187.4Y-65.2
X187.849Y-65.651
X187.9Y-100.151
X187.95Y-46.55
X187.951Y-126.528
X188.101Y-54.651
X188.4Y-101.6
X188.5Y-62.4
X188.551Y-61.751
X188.551Y-76.151
X188.551Y-100.151
X188.551Y-111.951
X188.572Y-75.08
X188.572Y-110.906
X188.601Y-126.528
X188.601Y-128.268
X188.95Y-136.55
X189.0Y-103.1
X189.0Y-134.0
X189.001Y-131.185
X189.051Y-74.151
X189.051Y-101.551
X189.051Y-109.951
X189.072Y-71.63
X189.072Y-75.08
X189.072Y-107.456
X189.072Y-110.906
X189.251Y-126.528
X189.351Y-54.651
X189.551Y-72.551
X189.551Y-103.051
X189.551Y-104.351
X189.551Y-108.451
X189.572Y-75.08
X189.572Y-110.906
X189.751Y-65.651
X189.851Y-126.528
X189.851Y-128.268
X189.95Y-46.55
X189.951Y-56.391
X190.0Y-61.9
X190.001Y-51.734
X190.051Y-61.251
X190.051Y-76.151
X190.072Y-71.63
X190.072Y-75.08
X190.072Y-107.456
X190.072Y-110.906
X190.105Y-66.005
X190.151Y-104.351
X190.151Y-111.951
X190.501Y-131.185
X190.551Y-72.551
X190.551Y-108.451
X190.601Y-54.651
X190.601Y-56.391
X190.95Y-136.55
X191.0Y-78.5
X191.0Y-88.5
X191.0Y-93.5
X191.0Y-134.0
X191.051Y-108.451
X191.051Y-111.951
X191.072Y-71.63
X191.072Y-75.08
X191.072Y-107.456
X191.072Y-110.906
X191.101Y-128.268
X191.151Y-72.551
X191.151Y-76.151
X191.251Y-56.391
X191.251Y-60.751
X191.501Y-51.734
X191.551Y-62.851
X191.551Y-108.451
X191.551Y-108.951
X191.572Y-71.63
X191.572Y-107.456
X191.651Y-61.2
X191.651Y-72.551
X191.651Y-73.051
X191.851Y-54.651
X191.851Y-56.391
X191.95Y-46.55
X192.051Y-65.251
X192.051Y-76.151
X192.051Y-62.851
X192.072Y-71.63
X192.072Y-75.08
X192.072Y-107.456
X192.072Y-110.906
X192.151Y-111.951
X192.351Y-128.268
X192.547Y-67.551
X192.547Y-72.605
X192.547Y-74.105
X192.547Y-108.431
X192.547Y-109.931
X192.551Y-65.251
X192.95Y-136.55
X193.047Y-67.551
X193.251Y-121.151
X193.251Y-122.651
X193.251Y-123.651
X193.251Y-124.751
X193.95Y-46.55
X194.351Y-121.16
X194.351Y-121.66
X194.351Y-122.16
X194.351Y-122.66
X194.351Y-123.66
X194.351Y-124.66
X194.4Y-97.0
X194.4Y-98.0
X194.4Y-99.0
X194.4Y-100.1
X194.4Y-101.6
X194.4Y-102.9
X194.432Y-73.955
X194.432Y-74.551
X194.432Y-75.205
X194.432Y-75.851
X194.432Y-76.455
X194.432Y-77.051
X194.432Y-77.705
X194.432Y-78.351
X194.432Y-109.781
X194.432Y-110.451
X194.432Y-111.031
X194.432Y-111.651
X194.432Y-112.281
X194.432Y-112.951
X194.432Y-113.531
X194.432Y-114.251
X194.451Y-58.259
X194.451Y-58.759
X194.451Y-59.259
X194.451Y-60.259
X194.451Y-61.259
X194.786Y-63.551
X194.95Y-136.55
X195.326Y-125.135
X195.351Y-58.651
X195.351Y-59.151
X195.351Y-59.751
X195.351Y-60.751
X195.351Y-119.551
X195.351Y-121.651
X195.426Y-57.784
X195.426Y-63.551
X195.851Y-58.651
X195.851Y-119.551
X195.95Y-46.55
X196.0Y-52.0
X196.0Y-55.0
X196.0Y-78.5
X196.0Y-88.5
X196.0Y-93.5
X196.172Y-68.955
X196.172Y-70.205
X196.172Y-71.455
X196.172Y-72.705
X196.172Y-73.955
X196.172Y-75.205
X196.172Y-76.455
X196.172Y-77.705
X196.172Y-104.781
X196.172Y-106.045
X196.172Y-107.309
X196.172Y-108.573
X196.172Y-109.838
X196.172Y-111.102
X196.172Y-112.366
X196.172Y-113.631
X196.251Y-124.151
X196.751Y-122.151
X196.751Y-123.151
X196.751Y-123.651
X196.751Y-124.151
X196.826Y-119.5
X196.826Y-125.135
X196.926Y-57.784
X196.95Y-136.55
X196.951Y-61.251
X197.466Y-119.5
X197.801Y-121.66
X197.801Y-122.66
X197.801Y-123.66
X197.801Y-124.16
X197.801Y-124.66
X197.901Y-58.259
X197.901Y-59.259
X197.901Y-60.259
X197.901Y-60.759
X197.901Y-61.259
X197.901Y-61.759
X197.95Y-46.55
X198.351Y-119.551
X198.4Y-104.9
X198.95Y-136.55
X198.951Y-58.251
X198.951Y-59.251
X198.951Y-60.251
X198.951Y-61.751
X198.951Y-119.551
X199.122Y-71.805
X199.122Y-73.305
X199.122Y-74.805
X199.122Y-76.305
X199.122Y-107.631
X199.122Y-109.131
X199.122Y-110.631
X199.122Y-112.131
X199.717Y-101.862
X199.751Y-126.528
X199.901Y-54.651
X199.95Y-46.55
X200.401Y-126.528
X200.401Y-128.268
X200.5Y-78.5
X200.5Y-88.5
X200.5Y-93.5
X200.751Y-131.185
X200.9Y-108.2
X200.95Y-136.55
X201.0Y-63.5
X201.0Y-118.5
X201.0Y-134.0
X201.051Y-126.528
X201.151Y-54.651
X201.5Y-71.5
X201.5Y-75.5
X201.651Y-126.528
X201.651Y-128.268
X201.751Y-51.734
X201.95Y-46.55
X202.251Y-131.185
X202.368Y-56.391
X202.4Y-108.8
X202.401Y-54.651
X202.901Y-128.268
X202.95Y-136.55
X202.951Y-56.391
X203.0Y-134.0
X203.251Y-51.734
X203.5Y-61.0
X203.601Y-56.391
X203.651Y-54.651
X203.7Y-109.1
X203.95Y-46.55
X204.151Y-128.268
X204.251Y-56.391
X204.7Y-70.2
X204.95Y-136.55
X205.376Y-103.651
X205.5Y-104.3
X205.581Y-70.168
X205.95Y-46.55
X206.0Y-58.5
X206.0Y-63.5
X206.0Y-68.5
X206.0Y-78.5
X206.0Y-83.5
X206.0Y-98.5
X206.0Y-118.5
X206.0Y-123.5
X206.0Y-128.5
X206.95Y-136.55
X207.201Y-103.651
X207.201Y-104.985
X207.201Y-106.318
X207.201Y-107.651
X207.201Y-108.985
X207.201Y-110.318
X207.201Y-111.651
X207.201Y-112.985
X207.201Y-114.318
X207.201Y-115.651
X207.251Y-70.168
X207.251Y-71.501
X207.251Y-72.835
X207.251Y-74.168
X207.251Y-75.501
X207.251Y-76.835
X207.95Y-46.55
X208.5Y-56.0
X208.95Y-37.55
X208.95Y-39.55
X208.95Y-41.55
X208.95Y-43.55
X208.95Y-45.55
X208.95Y-88.55
X208.95Y-90.55
X208.95Y-92.55
X208.95Y-94.55
X208.95Y-137.55
X208.95Y-139.55
X208.95Y-141.55
X208.95Y-143.55
X208.95Y-145.55
X209.95Y-86.55
X209.95Y-95.55
X210.101Y-105.901
X210.101Y-106.901
X210.101Y-109.401
X210.101Y-111.901
X210.101Y-112.401
X210.151Y-70.801
X210.151Y-71.301
X210.151Y-72.301
X210.151Y-74.801
X210.151Y-75.301
X210.95Y-37.55
X210.95Y-47.55
X210.95Y-145.55
X211.0Y-58.5
X211.0Y-63.5
X211.0Y-68.5
X211.0Y-98.5
X211.0Y-118.5
X211.0Y-123.5
X211.0Y-128.5
X211.0Y-132.0
X211.0Y-136.5
X211.95Y-86.55
X211.95Y-95.55
X212.301Y-39.901
X212.301Y-142.936
X213.0Y-106.5
X213.0Y-109.5
X213.0Y-112.5
X213.95Y-37.55
X213.95Y-47.55
X213.95Y-86.55
X213.95Y-95.55
X213.95Y-145.55
X214.0Y-136.5
X215.95Y-37.55
X215.95Y-39.55
X215.95Y-41.55
X215.95Y-43.55
X215.95Y-45.55
X215.95Y-47.55
X215.95Y-49.55
X215.95Y-51.55
X215.95Y-53.55
X215.95Y-55.55
X215.95Y-57.55
X215.95Y-59.55
X215.95Y-61.55
X215.95Y-63.55
X215.95Y-65.55
X215.95Y-67.55
X215.95Y-69.55
X215.95Y-71.55
X215.95Y-73.55
X215.95Y-75.55
X215.95Y-77.55
X215.95Y-79.55
X215.95Y-81.55
X215.95Y-83.55
X215.95Y-85.55
X215.95Y-95.55
X215.95Y-97.55
X215.95Y-99.55
X215.95Y-101.55
X215.95Y-103.55
X215.95Y-105.55
X215.95Y-107.55
X215.95Y-109.55
X215.95Y-111.55
X215.95Y-113.55
X215.95Y-115.55
X215.95Y-117.55
X215.95Y-119.55
X215.95Y-121.55
X215.95Y-123.55
X215.95Y-125.55
X215.95Y-127.55
X215.95Y-129.55
X215.95Y-131.55
X215.95Y-133.55
X215.95Y-135.55
X215.95Y-137.55
X215.95Y-139.55
X215.95Y-141.55
X215.95Y-143.55
X215.95Y-145.55
T2
X80.131Y-75.655
X80.131Y-111.481
X83.281Y-88.239
X83.281Y-94.639
X85.151Y-87.801
X96.626Y-122.927
X96.726Y-60.009
X96.8Y-87.8
X96.8Y-88.7
X97.101Y-86.2
X97.5Y-87.8
X97.5Y-88.7
X102.0Y-73.5
X102.48Y-109.581
X114.0Y-127.5
X121.0Y-73.5
X121.601Y-91.182
X121.601Y-109.581
X131.085Y-60.501
X131.085Y-79.701
X131.085Y-114.81
X131.5Y-123.0
X135.151Y-93.151
X137.379Y-92.904
X144.722Y-97.289
X145.522Y-97.289
X146.116Y-103.201
X146.116Y-122.351
X146.322Y-97.289
X146.687Y-60.501
X146.687Y-79.564
X147.122Y-97.289
X161.318Y-60.501
X161.318Y-79.701
X161.318Y-114.81
X161.718Y-122.401
X171.101Y-73.355
X171.101Y-91.754
X171.101Y-109.181
X190.322Y-109.181
X191.0Y-73.5
X196.076Y-122.91
X196.176Y-60.009
X205.6Y-87.5
T3
X91.951Y-81.951
X91.951Y-83.851
X207.951Y-117.051
T4
X78.051Y-33.051
X78.051Y-149.826
X78.754Y-31.354
X78.754Y-34.748
X78.754Y-148.129
X78.754Y-151.523
X80.451Y-30.651
X80.451Y-35.451
X80.451Y-147.426
X80.451Y-152.226
X82.148Y-31.354
X82.148Y-34.748
X82.148Y-148.129
X82.148Y-151.523
X82.851Y-33.051
X82.851Y-149.826
X209.901Y-33.051
X209.901Y-149.826
X210.604Y-31.354
X210.604Y-34.748
X210.604Y-148.129
X210.604Y-151.523
X212.301Y-30.651
X212.301Y-35.451
X212.301Y-147.426
X212.301Y-152.226
X213.998Y-31.354
X213.998Y-34.748
X213.998Y-148.129
X213.998Y-151.523
X214.701Y-33.051
X214.701Y-149.826
T6
X115.43Y-55.5
X116.7Y-55.5
X117.97Y-55.5
T7
X206.466Y-90.164
X206.466Y-92.704
T8
X80.451Y-33.051
X80.451Y-149.826
X212.301Y-33.051
X212.301Y-149.826
T5
G00X78.926Y-87.119
M15
G01X78.126Y-87.119
M16
G05
G00X78.926Y-95.759
M15
G01X78.126Y-95.759
M16
G05
G00X83.256Y-87.119
M15
G01X82.156Y-87.119
M16
G05
G00X83.256Y-95.759
M15
G01X82.156Y-95.759
M16
G05
M30
